<svg
                  width="21"
                  height="13"
                  viewBox="0 0 21 13"
                  fill="none"
                  xmlns="http://www.w3.org/2000/svg"
                >
                  <path
                    d="M0.934082 1.7C0.934082 1.03726 1.47134 0.5 2.13408 0.5H18.9341C19.5968 0.5 20.1341 1.03726 20.1341 1.7C20.1341 2.36274 19.5968 2.9 18.9341 2.9H2.13408C1.47134 2.9 0.934082 2.36274 0.934082 1.7Z"
                    fill="white"
                  />
                  <path
                    d="M2.73408 6.5C2.73408 5.83726 3.27134 5.3 3.93408 5.3H18.9341C19.5968 5.3 20.1341 5.83726 20.1341 6.5C20.1341 7.16274 19.5968 7.7 18.9341 7.7H3.93408C3.27134 7.7 2.73408 7.16274 2.73408 6.5Z"
                    fill="white"
                  />
                  <path
                    d="M11.1341 11.3C11.1341 10.6373 11.6713 10.1 12.3341 10.1H18.9341C19.5968 10.1 20.1341 10.6373 20.1341 11.3C20.1341 11.9627 19.5968 12.5 18.9341 12.5H12.3341C11.6713 12.5 11.1341 11.9627 11.1341 11.3Z"
                    fill="white"
                  />
                </svg>